<svg width="19" height="21" viewBox="0 0 19 21" fill="none" xmlns="http://www.w3.org/2000/svg">
<path d="M9.5 1.3125C11.3122 1.3125 12.7812 2.78157 12.7812 4.59375V5.25H6.21875V4.59375C6.21875 2.78157 7.68782 1.3125 9.5 1.3125ZM14.0938 5.25V4.59375C14.0938 2.05669 12.0371 0 9.5 0C6.96294 0 4.90625 2.05669 4.90625 4.59375V5.25H0.3125V18.375C0.3125 19.8247 1.48775 21 2.9375 21H16.0625C17.5122 21 18.6875 19.8247 18.6875 18.375V5.25H14.0938ZM1.625 6.5625H17.375V18.375C17.375 19.0999 16.7874 19.6875 16.0625 19.6875H2.9375C2.21263 19.6875 1.625 19.0999 1.625 18.375V6.5625Z" fill="#C4C4C4"/>
</svg>
