<svg width="22" height="18" viewBox="0 0 22 18" fill="none" xmlns="http://www.w3.org/2000/svg">
<path fill-rule="evenodd" clip-rule="evenodd" d="M0.6875 16.5625C0.6875 16.0447 1.10723 15.625 1.625 15.625H20.375C20.8928 15.625 21.3125 16.0447 21.3125 16.5625C21.3125 17.0803 20.8928 17.5 20.375 17.5H1.625C1.10723 17.5 0.6875 17.0803 0.6875 16.5625Z" fill="#C4C4C4"/>
<path fill-rule="evenodd" clip-rule="evenodd" d="M0.6875 9.0625C0.6875 8.54473 1.10723 8.125 1.625 8.125H20.375C20.8928 8.125 21.3125 8.54473 21.3125 9.0625C21.3125 9.58027 20.8928 10 20.375 10H1.625C1.10723 10 0.6875 9.58027 0.6875 9.0625Z" fill="#C4C4C4"/>
<path fill-rule="evenodd" clip-rule="evenodd" d="M0.6875 1.5625C0.6875 1.04473 1.10723 0.625 1.625 0.625H20.375C20.8928 0.625 21.3125 1.04473 21.3125 1.5625C21.3125 2.08027 20.8928 2.5 20.375 2.5H1.625C1.10723 2.5 0.6875 2.08027 0.6875 1.5625Z" fill="#C4C4C4"/>
</svg>
